<?xml version="1.0" encoding="UTF-8" standalone="no"?>
<!-- Created with Inkscape (http://www.inkscape.org/) -->

<svg
   xmlns:dc="http://purl.org/dc/elements/1.1/"
   xmlns:cc="http://creativecommons.org/ns#"
   xmlns:rdf="http://www.w3.org/1999/02/22-rdf-syntax-ns#"
   xmlns:svg="http://www.w3.org/2000/svg"
   xmlns="http://www.w3.org/2000/svg"
   xmlns:sodipodi="http://sodipodi.sourceforge.net/DTD/sodipodi-0.dtd"
   xmlns:inkscape="http://www.inkscape.org/namespaces/inkscape"
   version="1.1"
   id="svg3903"
   xml:space="preserve"
   width="1165.6533"
   height="370.35065"
   viewBox="0 0 1165.6533 370.35065"
   sodipodi:docname="model_schematic_multidomain_motoneuron.svg"
   inkscape:version="0.92.3 (2405546, 2018-03-11)"><metadata
     id="metadata3909"><rdf:RDF><cc:Work
         rdf:about=""><dc:format>image/svg+xml</dc:format><dc:type
           rdf:resource="http://purl.org/dc/dcmitype/StillImage" /><dc:title></dc:title></cc:Work></rdf:RDF></metadata><defs
     id="defs3907"><clipPath
       clipPathUnits="userSpaceOnUse"
       id="clipPath3919"><path
         d="M 0,1.2207e-4 H 960 V 540.00012 H 0 Z"
         id="path3917"
         inkscape:connector-curvature="0"
         style="clip-rule:evenodd" /></clipPath><clipPath
       clipPathUnits="userSpaceOnUse"
       id="clipPath3929"><path
         d="M 1.4305e-5,0 H 960.00001 V 540 H 1.4305e-5 Z"
         id="path3927"
         inkscape:connector-curvature="0"
         style="clip-rule:evenodd" /></clipPath><clipPath
       clipPathUnits="userSpaceOnUse"
       id="clipPath3945"><path
         d="M 1.4305e-5,0 H 960.00001 V 540 H 1.4305e-5 Z"
         id="path3943"
         inkscape:connector-curvature="0"
         style="clip-rule:evenodd" /></clipPath><clipPath
       clipPathUnits="userSpaceOnUse"
       id="clipPath3957"><path
         d="M 1.4305e-5,0 H 960.00001 V 540 H 1.4305e-5 Z"
         id="path3955"
         inkscape:connector-curvature="0"
         style="clip-rule:evenodd" /></clipPath><clipPath
       clipPathUnits="userSpaceOnUse"
       id="clipPath3969"><path
         d="M 1.4305e-5,0 H 960.00001 V 540 H 1.4305e-5 Z"
         id="path3967"
         inkscape:connector-curvature="0"
         style="clip-rule:evenodd" /></clipPath><clipPath
       clipPathUnits="userSpaceOnUse"
       id="clipPath3981"><path
         d="M 1.4305e-5,0 H 960.00001 V 540 H 1.4305e-5 Z"
         id="path3979"
         inkscape:connector-curvature="0"
         style="clip-rule:evenodd" /></clipPath><clipPath
       clipPathUnits="userSpaceOnUse"
       id="clipPath3993"><path
         d="M 1.4305e-5,0 H 960.00001 V 540 H 1.4305e-5 Z"
         id="path3991"
         inkscape:connector-curvature="0"
         style="clip-rule:evenodd" /></clipPath><clipPath
       clipPathUnits="userSpaceOnUse"
       id="clipPath4005"><path
         d="M 1.4305e-5,0 H 960.00001 V 540 H 1.4305e-5 Z"
         id="path4003"
         inkscape:connector-curvature="0"
         style="clip-rule:evenodd" /></clipPath><clipPath
       clipPathUnits="userSpaceOnUse"
       id="clipPath4017"><path
         d="M 1.4305e-5,0 H 960.00001 V 540 H 1.4305e-5 Z"
         id="path4015"
         inkscape:connector-curvature="0"
         style="clip-rule:evenodd" /></clipPath><clipPath
       clipPathUnits="userSpaceOnUse"
       id="clipPath4029"><path
         d="M 1.4305e-5,0 H 960.00001 V 540 H 1.4305e-5 Z"
         id="path4027"
         inkscape:connector-curvature="0"
         style="clip-rule:evenodd" /></clipPath><clipPath
       clipPathUnits="userSpaceOnUse"
       id="clipPath4041"><path
         d="M 1.4305e-5,0 H 960.00001 V 540 H 1.4305e-5 Z"
         id="path4039"
         inkscape:connector-curvature="0"
         style="clip-rule:evenodd" /></clipPath><clipPath
       clipPathUnits="userSpaceOnUse"
       id="clipPath4053"><path
         d="M 1.4305e-5,0 H 960.00001 V 540 H 1.4305e-5 Z"
         id="path4051"
         inkscape:connector-curvature="0"
         style="clip-rule:evenodd" /></clipPath><clipPath
       clipPathUnits="userSpaceOnUse"
       id="clipPath4065"><path
         d="M 1.4305e-5,0 H 960.00001 V 540 H 1.4305e-5 Z"
         id="path4063"
         inkscape:connector-curvature="0"
         style="clip-rule:evenodd" /></clipPath><clipPath
       clipPathUnits="userSpaceOnUse"
       id="clipPath4077"><path
         d="M 1.4305e-5,0 H 960.00001 V 540 H 1.4305e-5 Z"
         id="path4075"
         inkscape:connector-curvature="0"
         style="clip-rule:evenodd" /></clipPath><clipPath
       clipPathUnits="userSpaceOnUse"
       id="clipPath4093"><path
         d="M 1.4305e-5,0 H 960.00001 V 540 H 1.4305e-5 Z"
         id="path4091"
         inkscape:connector-curvature="0"
         style="clip-rule:evenodd" /></clipPath><clipPath
       clipPathUnits="userSpaceOnUse"
       id="clipPath4105"><path
         d="M 1.4305e-5,0 H 960.00001 V 540 H 1.4305e-5 Z"
         id="path4103"
         inkscape:connector-curvature="0"
         style="clip-rule:evenodd" /></clipPath><clipPath
       clipPathUnits="userSpaceOnUse"
       id="clipPath4117"><path
         d="M 1.4305e-5,0 H 960.00001 V 540 H 1.4305e-5 Z"
         id="path4115"
         inkscape:connector-curvature="0"
         style="clip-rule:evenodd" /></clipPath><clipPath
       clipPathUnits="userSpaceOnUse"
       id="clipPath4129"><path
         d="M 1.4305e-5,0 H 960.00001 V 540 H 1.4305e-5 Z"
         id="path4127"
         inkscape:connector-curvature="0"
         style="clip-rule:evenodd" /></clipPath><clipPath
       clipPathUnits="userSpaceOnUse"
       id="clipPath4141"><path
         d="M 1.4305e-5,0 H 960.00001 V 540 H 1.4305e-5 Z"
         id="path4139"
         inkscape:connector-curvature="0"
         style="clip-rule:evenodd" /></clipPath><clipPath
       clipPathUnits="userSpaceOnUse"
       id="clipPath4157"><path
         d="M 1.4305e-5,0 H 960.00001 V 540 H 1.4305e-5 Z"
         id="path4155"
         inkscape:connector-curvature="0"
         style="clip-rule:evenodd" /></clipPath><clipPath
       clipPathUnits="userSpaceOnUse"
       id="clipPath4169"><path
         d="M 1.4305e-5,0 H 960.00001 V 540 H 1.4305e-5 Z"
         id="path4167"
         inkscape:connector-curvature="0"
         style="clip-rule:evenodd" /></clipPath><clipPath
       clipPathUnits="userSpaceOnUse"
       id="clipPath4181"><path
         d="M 1.4305e-5,0 H 960.00001 V 540 H 1.4305e-5 Z"
         id="path4179"
         inkscape:connector-curvature="0"
         style="clip-rule:evenodd" /></clipPath><clipPath
       clipPathUnits="userSpaceOnUse"
       id="clipPath4193"><path
         d="M 1.4305e-5,0 H 960.00001 V 540 H 1.4305e-5 Z"
         id="path4191"
         inkscape:connector-curvature="0"
         style="clip-rule:evenodd" /></clipPath><clipPath
       clipPathUnits="userSpaceOnUse"
       id="clipPath4205"><path
         d="M 1.4305e-5,0 H 960.00001 V 540 H 1.4305e-5 Z"
         id="path4203"
         inkscape:connector-curvature="0"
         style="clip-rule:evenodd" /></clipPath><clipPath
       clipPathUnits="userSpaceOnUse"
       id="clipPath4217"><path
         d="M 1.4305e-5,0 H 960.00001 V 540 H 1.4305e-5 Z"
         id="path4215"
         inkscape:connector-curvature="0"
         style="clip-rule:evenodd" /></clipPath><clipPath
       clipPathUnits="userSpaceOnUse"
       id="clipPath4229"><path
         d="M 1.4305e-5,0 H 960.00001 V 540 H 1.4305e-5 Z"
         id="path4227"
         inkscape:connector-curvature="0"
         style="clip-rule:evenodd" /></clipPath><clipPath
       clipPathUnits="userSpaceOnUse"
       id="clipPath4241"><path
         d="M 1.4305e-5,0 H 960.00001 V 540 H 1.4305e-5 Z"
         id="path4239"
         inkscape:connector-curvature="0"
         style="clip-rule:evenodd" /></clipPath><clipPath
       clipPathUnits="userSpaceOnUse"
       id="clipPath4257"><path
         d="M 1.4305e-5,0 H 960.00001 V 540 H 1.4305e-5 Z"
         id="path4255"
         inkscape:connector-curvature="0"
         style="clip-rule:evenodd" /></clipPath><clipPath
       clipPathUnits="userSpaceOnUse"
       id="clipPath4269"><path
         d="M 1.4305e-5,0 H 960.00001 V 540 H 1.4305e-5 Z"
         id="path4267"
         inkscape:connector-curvature="0"
         style="clip-rule:evenodd" /></clipPath><clipPath
       clipPathUnits="userSpaceOnUse"
       id="clipPath4281"><path
         d="M 1.4305e-5,0 H 960.00001 V 540 H 1.4305e-5 Z"
         id="path4279"
         inkscape:connector-curvature="0"
         style="clip-rule:evenodd" /></clipPath><clipPath
       clipPathUnits="userSpaceOnUse"
       id="clipPath4293"><path
         d="M 1.4305e-5,0 H 960.00001 V 540 H 1.4305e-5 Z"
         id="path4291"
         inkscape:connector-curvature="0"
         style="clip-rule:evenodd" /></clipPath><clipPath
       clipPathUnits="userSpaceOnUse"
       id="clipPath4305"><path
         d="M 1.4305e-5,0 H 960.00001 V 540 H 1.4305e-5 Z"
         id="path4303"
         inkscape:connector-curvature="0"
         style="clip-rule:evenodd" /></clipPath><clipPath
       clipPathUnits="userSpaceOnUse"
       id="clipPath4317"><path
         d="M 1.4305e-5,0 H 960.00001 V 540 H 1.4305e-5 Z"
         id="path4315"
         inkscape:connector-curvature="0"
         style="clip-rule:evenodd" /></clipPath><clipPath
       clipPathUnits="userSpaceOnUse"
       id="clipPath4333"><path
         d="M 1.4305e-5,0 H 960.00001 V 540 H 1.4305e-5 Z"
         id="path4331"
         inkscape:connector-curvature="0"
         style="clip-rule:evenodd" /></clipPath><clipPath
       clipPathUnits="userSpaceOnUse"
       id="clipPath4345"><path
         d="M 1.4305e-5,0 H 960.00001 V 540 H 1.4305e-5 Z"
         id="path4343"
         inkscape:connector-curvature="0"
         style="clip-rule:evenodd" /></clipPath><clipPath
       clipPathUnits="userSpaceOnUse"
       id="clipPath4357"><path
         d="M 1.4305e-5,0 H 960.00001 V 540 H 1.4305e-5 Z"
         id="path4355"
         inkscape:connector-curvature="0"
         style="clip-rule:evenodd" /></clipPath><clipPath
       clipPathUnits="userSpaceOnUse"
       id="clipPath4369"><path
         d="M 1.4305e-5,0 H 960.00001 V 540 H 1.4305e-5 Z"
         id="path4367"
         inkscape:connector-curvature="0"
         style="clip-rule:evenodd" /></clipPath><clipPath
       clipPathUnits="userSpaceOnUse"
       id="clipPath4381"><path
         d="M 1.4305e-5,0 H 960.00001 V 540 H 1.4305e-5 Z"
         id="path4379"
         inkscape:connector-curvature="0"
         style="clip-rule:evenodd" /></clipPath><clipPath
       clipPathUnits="userSpaceOnUse"
       id="clipPath4393"><path
         d="M 1.4305e-5,0 H 960.00001 V 540 H 1.4305e-5 Z"
         id="path4391"
         inkscape:connector-curvature="0"
         style="clip-rule:evenodd" /></clipPath><clipPath
       clipPathUnits="userSpaceOnUse"
       id="clipPath4405"><path
         d="M 1.4305e-5,0 H 960.00001 V 540 H 1.4305e-5 Z"
         id="path4403"
         inkscape:connector-curvature="0"
         style="clip-rule:evenodd" /></clipPath><clipPath
       clipPathUnits="userSpaceOnUse"
       id="clipPath4417"><path
         d="M 1.4305e-5,0 H 960.00001 V 540 H 1.4305e-5 Z"
         id="path4415"
         inkscape:connector-curvature="0"
         style="clip-rule:evenodd" /></clipPath><clipPath
       clipPathUnits="userSpaceOnUse"
       id="clipPath4429"><path
         d="M 1.4305e-5,0 H 960.00001 V 540 H 1.4305e-5 Z"
         id="path4427"
         inkscape:connector-curvature="0"
         style="clip-rule:evenodd" /></clipPath><clipPath
       clipPathUnits="userSpaceOnUse"
       id="clipPath4445"><path
         d="M 1.4305e-5,0 H 960.00001 V 540 H 1.4305e-5 Z"
         id="path4443"
         inkscape:connector-curvature="0"
         style="clip-rule:evenodd" /></clipPath><clipPath
       clipPathUnits="userSpaceOnUse"
       id="clipPath4457"><path
         d="M 1.4305e-5,0 H 960.00001 V 540 H 1.4305e-5 Z"
         id="path4455"
         inkscape:connector-curvature="0"
         style="clip-rule:evenodd" /></clipPath><clipPath
       clipPathUnits="userSpaceOnUse"
       id="clipPath4469"><path
         d="M 1.4305e-5,0 H 960.00001 V 540 H 1.4305e-5 Z"
         id="path4467"
         inkscape:connector-curvature="0"
         style="clip-rule:evenodd" /></clipPath><clipPath
       clipPathUnits="userSpaceOnUse"
       id="clipPath4481"><path
         d="M 1.4305e-5,0 H 960.00001 V 540 H 1.4305e-5 Z"
         id="path4479"
         inkscape:connector-curvature="0"
         style="clip-rule:evenodd" /></clipPath><clipPath
       clipPathUnits="userSpaceOnUse"
       id="clipPath4493"><path
         d="M 1.4305e-5,0 H 960.00001 V 540 H 1.4305e-5 Z"
         id="path4491"
         inkscape:connector-curvature="0"
         style="clip-rule:evenodd" /></clipPath><clipPath
       clipPathUnits="userSpaceOnUse"
       id="clipPath4505"><path
         d="M 1.4305e-5,0 H 960.00001 V 540 H 1.4305e-5 Z"
         id="path4503"
         inkscape:connector-curvature="0"
         style="clip-rule:evenodd" /></clipPath><clipPath
       clipPathUnits="userSpaceOnUse"
       id="clipPath4517"><path
         d="M 1.4305e-5,0 H 960.00001 V 540 H 1.4305e-5 Z"
         id="path4515"
         inkscape:connector-curvature="0"
         style="clip-rule:evenodd" /></clipPath><clipPath
       clipPathUnits="userSpaceOnUse"
       id="clipPath4529"><path
         d="M 1.4305e-5,0 H 960.00001 V 540 H 1.4305e-5 Z"
         id="path4527"
         inkscape:connector-curvature="0"
         style="clip-rule:evenodd" /></clipPath><clipPath
       clipPathUnits="userSpaceOnUse"
       id="clipPath4541"><path
         d="M 1.4305e-5,0 H 960.00001 V 540 H 1.4305e-5 Z"
         id="path4539"
         inkscape:connector-curvature="0"
         style="clip-rule:evenodd" /></clipPath><clipPath
       clipPathUnits="userSpaceOnUse"
       id="clipPath4553"><path
         d="M 1.4305e-5,0 H 960.00001 V 540 H 1.4305e-5 Z"
         id="path4551"
         inkscape:connector-curvature="0"
         style="clip-rule:evenodd" /></clipPath><clipPath
       clipPathUnits="userSpaceOnUse"
       id="clipPath4565"><path
         d="M 1.4305e-5,0 H 960.00001 V 540 H 1.4305e-5 Z"
         id="path4563"
         inkscape:connector-curvature="0"
         style="clip-rule:evenodd" /></clipPath><clipPath
       clipPathUnits="userSpaceOnUse"
       id="clipPath4589"><path
         d="M -8.803e-6,540 H 960 V 1.2207e-4 H -4.8173e-5"
         id="path4587"
         inkscape:connector-curvature="0"
         style="clip-rule:evenodd" /></clipPath><clipPath
       clipPathUnits="userSpaceOnUse"
       id="clipPath4599"><path
         d="M -4.6333e-5,540 H 960 V 0 H -4.6333e-5"
         id="path4597"
         inkscape:connector-curvature="0"
         style="clip-rule:evenodd" /></clipPath><clipPath
       clipPathUnits="userSpaceOnUse"
       id="clipPath4615"><path
         d="M 1.4305e-5,0 H 960.00001 V 540 H 1.4305e-5 Z"
         id="path4613"
         inkscape:connector-curvature="0"
         style="clip-rule:evenodd" /></clipPath><clipPath
       clipPathUnits="userSpaceOnUse"
       id="clipPath4627"><path
         d="M 1.4305e-5,0 H 960.00001 V 540 H 1.4305e-5 Z"
         id="path4625"
         inkscape:connector-curvature="0"
         style="clip-rule:evenodd" /></clipPath><clipPath
       clipPathUnits="userSpaceOnUse"
       id="clipPath4639"><path
         d="M 1.4305e-5,0 H 960.00001 V 540 H 1.4305e-5 Z"
         id="path4637"
         inkscape:connector-curvature="0"
         style="clip-rule:evenodd" /></clipPath><clipPath
       clipPathUnits="userSpaceOnUse"
       id="clipPath4651"><path
         d="M 1.4305e-5,0 H 960.00001 V 540 H 1.4305e-5 Z"
         id="path4649"
         inkscape:connector-curvature="0"
         style="clip-rule:evenodd" /></clipPath><clipPath
       clipPathUnits="userSpaceOnUse"
       id="clipPath4663"><path
         d="M 1.4305e-5,0 H 960.00001 V 540 H 1.4305e-5 Z"
         id="path4661"
         inkscape:connector-curvature="0"
         style="clip-rule:evenodd" /></clipPath><clipPath
       clipPathUnits="userSpaceOnUse"
       id="clipPath4675"><path
         d="M 1.4305e-5,0 H 960.00001 V 540 H 1.4305e-5 Z"
         id="path4673"
         inkscape:connector-curvature="0"
         style="clip-rule:evenodd" /></clipPath></defs><sodipodi:namedview
     pagecolor="#ffffff"
     bordercolor="#666666"
     borderopacity="1"
     objecttolerance="10"
     gridtolerance="10"
     guidetolerance="10"
     inkscape:pageopacity="0"
     inkscape:pageshadow="2"
     inkscape:window-width="1920"
     inkscape:window-height="1023"
     id="namedview3905"
     showgrid="false"
     inkscape:zoom="0.92709556"
     inkscape:cx="487.29269"
     inkscape:cy="252.82082"
     inkscape:window-x="0"
     inkscape:window-y="0"
     inkscape:window-maximized="1"
     inkscape:current-layer="g3911"
     fit-margin-top="0"
     fit-margin-left="0"
     fit-margin-right="0"
     fit-margin-bottom="0" /><g
     id="g3911"
     inkscape:groupmode="layer"
     inkscape:label="2020_07_27_model_schematic"
     transform="matrix(1.3333333,0,0,-1.3333333,-50.239999,488.79999)"><path
       d="m 632.4,262.82 c 0,4.83 3.91,8.74 8.74,8.74 H 863.3 c 4.83,0 8.74,-3.91 8.74,-8.74 v -34.96 c 0,-4.83 -3.91,-8.74 -8.74,-8.74 H 641.14 c -4.83,0 -8.74,3.91 -8.74,8.74 z"
       style="fill:#ffee99;fill-opacity:1;fill-rule:evenodd;stroke:none"
       id="path3935"
       inkscape:connector-curvature="0" /><path
       d="m 632.4,262.82 c 0,4.83 3.91,8.74 8.74,8.74 H 863.3 c 4.83,0 8.74,-3.91 8.74,-8.74 v -34.96 c 0,-4.83 -3.91,-8.74 -8.74,-8.74 H 641.14 c -4.83,0 -8.74,3.91 -8.74,8.74 z"
       style="fill:none;stroke:#323232;stroke-width:0.95999998;stroke-linecap:butt;stroke-linejoin:miter;stroke-miterlimit:10;stroke-dasharray:none;stroke-opacity:1"
       id="path3937"
       inkscape:connector-curvature="0" /><g
       id="g5431"><g
         id="g3939"><g
           clip-path="url(#clipPath3945)"
           id="g3941"><text
   id="text3949"
   style="font-variant:normal;font-weight:bold;font-size:16.79999924px;font-family:Arial;-inkscape-font-specification:Arial-BoldMT;writing-mode:lr-tb;fill:#323232;fill-opacity:1;fill-rule:nonzero;stroke:none"
   transform="matrix(1,0,0,-1,655.27,249.12)"><tspan
     id="tspan3947"
     sodipodi:role="line"
     y="0"
     x="0 12.1296 21.4704 26.1408">Half</tspan></text>

</g></g><g
         id="g3951"><g
           clip-path="url(#clipPath3957)"
           id="g3953"><text
   id="text3961"
   style="font-variant:normal;font-weight:bold;font-size:16.79999924px;font-family:Arial;-inkscape-font-specification:Arial-BoldMT;writing-mode:lr-tb;fill:#323232;fill-opacity:1;fill-rule:nonzero;stroke:none"
   transform="matrix(1,0,0,-1,687.07,249.12)"><tspan
     id="tspan3959"
     y="0"
     x="0">-</tspan></text>

</g></g><g
         id="g3963"><g
           clip-path="url(#clipPath3969)"
           id="g3965"><text
   id="text3973"
   style="font-variant:normal;font-weight:bold;font-size:16.79999924px;font-family:Arial;-inkscape-font-specification:Arial-BoldMT;writing-mode:lr-tb;fill:#323232;fill-opacity:1;fill-rule:nonzero;stroke:none"
   transform="matrix(1,0,0,-1,692.71,249.12)"><tspan
     id="tspan3971"
     sodipodi:role="line"
     y="0"
     x="0 9.3408003 18.681601 25.216801 34.557598 44.855999 59.791199 69.132004 75.599998">sarcomere</tspan></text>

</g></g><g
         id="g3975"><g
           clip-path="url(#clipPath3981)"
           id="g3977"><text
   id="text3985"
   style="font-variant:normal;font-weight:bold;font-size:16.79999924px;font-family:Arial;-inkscape-font-specification:Arial-BoldMT;writing-mode:lr-tb;fill:#323232;fill-opacity:1;fill-rule:nonzero;stroke:none"
   transform="matrix(1,0,0,-1,782.38,249.12)"><tspan
     id="tspan3983"
     y="0"
     x="0">(</tspan></text>

</g></g><g
         id="g3987"><g
           clip-path="url(#clipPath3993)"
           id="g3989"><text
   id="text3997"
   style="font-style:italic;font-variant:normal;font-weight:bold;font-size:16.79999924px;font-family:Arial;-inkscape-font-specification:Arial-BoldItalicMT;writing-mode:lr-tb;fill:#323232;fill-opacity:1;fill-rule:nonzero;stroke:none"
   transform="matrix(1,0,0,-1,788.02,249.12)"><tspan
     id="tspan3995"
     y="0"
     x="0">m</tspan></text>

</g></g><g
         id="g3999"><g
           clip-path="url(#clipPath4005)"
           id="g4001"><text
   id="text4009"
   style="font-variant:normal;font-weight:bold;font-size:16.79999924px;font-family:Arial;-inkscape-font-specification:Arial-BoldMT;writing-mode:lr-tb;fill:#323232;fill-opacity:1;fill-rule:nonzero;stroke:none"
   transform="matrix(1,0,0,-1,807.7,249.12)"><tspan
     id="tspan4007"
     y="0"
     x="0">×</tspan></text>

</g></g><g
         id="g4011"><g
           clip-path="url(#clipPath4017)"
           id="g4013"><text
   id="text4021"
   style="font-variant:normal;font-weight:bold;font-size:16.79999924px;font-family:Arial;-inkscape-font-specification:Arial-BoldMT;writing-mode:lr-tb;fill:#323232;fill-opacity:1;fill-rule:nonzero;stroke:none"
   transform="matrix(1,0,0,-1,822.1,249.12)"><tspan
     id="tspan4019"
     sodipodi:role="line"
     y="0"
     x="0 9.3599997">0D</tspan></text>

</g></g><g
         id="g4023"><g
           clip-path="url(#clipPath4029)"
           id="g4025"><text
   id="text4033"
   style="font-variant:normal;font-weight:bold;font-size:16.79999924px;font-family:Arial;-inkscape-font-specification:Arial-BoldMT;writing-mode:lr-tb;fill:#323232;fill-opacity:1;fill-rule:nonzero;stroke:none"
   transform="matrix(1,0,0,-1,843.58,249.12)"><tspan
     id="tspan4031"
     y="0"
     x="0">)</tspan></text>

</g></g><g
         id="g4035"><g
           clip-path="url(#clipPath4041)"
           id="g4037"><text
   id="text4045"
   style="font-variant:normal;font-weight:normal;font-size:16.79999924px;font-family:ArialMT;-inkscape-font-specification:ArialMT;writing-mode:lr-tb;fill:#323232;fill-opacity:1;fill-rule:nonzero;stroke:none"
   transform="matrix(1,0,0,-1,667.15,228.96)"><tspan
     id="tspan4043"
     sodipodi:role="line"
     y="0"
     x="0 11.2056 20.5464">Sub</tspan></text>

</g></g><g
         id="g4047"><g
           clip-path="url(#clipPath4053)"
           id="g4049"><text
   id="text4057"
   style="font-variant:normal;font-weight:normal;font-size:16.79999924px;font-family:ArialMT;-inkscape-font-specification:ArialMT;writing-mode:lr-tb;fill:#323232;fill-opacity:1;fill-rule:nonzero;stroke:none"
   transform="matrix(1,0,0,-1,697.03,228.96)"><tspan
     id="tspan4055"
     y="0"
     x="0">-</tspan></text>

</g></g><g
         id="g4059"><g
           clip-path="url(#clipPath4065)"
           id="g4061"><text
   id="text4069"
   style="font-variant:normal;font-weight:normal;font-size:16.79999924px;font-family:ArialMT;-inkscape-font-specification:ArialMT;writing-mode:lr-tb;fill:#323232;fill-opacity:1;fill-rule:nonzero;stroke:none"
   transform="matrix(1,0,0,-1,702.67,228.96)"><tspan
     id="tspan4067"
     sodipodi:role="line"
     y="0"
     x="0 8.3999996 17.740801 21.4704 25.200001 34.540798 38.270401 47.611198">cellular</tspan></text>

</g></g><g
         id="g4071"><g
           clip-path="url(#clipPath4077)"
           id="g4073"><text
   id="text4081"
   style="font-variant:normal;font-weight:normal;font-size:16.79999924px;font-family:ArialMT;-inkscape-font-specification:ArialMT;writing-mode:lr-tb;fill:#323232;fill-opacity:1;fill-rule:nonzero;stroke:none"
   transform="matrix(1,0,0,-1,760.78,228.96)"><tspan
     id="tspan4079"
     sodipodi:role="line"
     y="0"
     x="0 9.3408003 14.9856 24.326401 32.726398 42.0672 50.467201 58.867199 68.2416">processes</tspan></text>

</g></g></g><path
       d="m 332.16,158.24 c 0,4.79 3.89,8.68 8.68,8.68 H 564.2 c 4.79,0 8.68,-3.89 8.68,-8.68 v -34.72 c 0,-4.79 -3.89,-8.68 -8.68,-8.68 H 340.84 c -4.79,0 -8.68,3.89 -8.68,8.68 z"
       style="fill:#99ff99;fill-opacity:1;fill-rule:evenodd;stroke:none"
       id="path4083"
       inkscape:connector-curvature="0" /><path
       d="m 332.16,158.24 c 0,4.79 3.89,8.68 8.68,8.68 H 564.2 c 4.79,0 8.68,-3.89 8.68,-8.68 v -34.72 c 0,-4.79 -3.89,-8.68 -8.68,-8.68 H 340.84 c -4.79,0 -8.68,3.89 -8.68,8.68 z"
       style="fill:none;stroke:#323232;stroke-width:0.95999998;stroke-linecap:butt;stroke-linejoin:miter;stroke-miterlimit:10;stroke-dasharray:none;stroke-opacity:1"
       id="path4085"
       inkscape:connector-curvature="0" /><g
       id="g5506"><g
         id="g4123"><g
           clip-path="url(#clipPath4129)"
           id="g4125"><text
   id="text4133"
   style="font-variant:normal;font-weight:normal;font-size:16.79999924px;font-family:ArialMT;-inkscape-font-specification:ArialMT;writing-mode:lr-tb;fill:#323232;fill-opacity:1;fill-rule:nonzero;stroke:none"
   transform="matrix(1,0,0,-1,357.74,124.49)"><tspan
     id="tspan4131"
     sodipodi:role="line"
     y="0"
     x="0 12.1296 20.16 29.500799 38.841599 52.903198 56.632801 65.032799 69.9216 78.321602 87.662399 91.391998 95.121597 104.4624">Dynamic solid </tspan></text>

</g></g><g
         id="g5263"><g
           id="g4087"><g
             id="g4089"
             clip-path="url(#clipPath4093)"><text
   transform="matrix(1,0,0,-1,357.26,144.65)"
   style="font-variant:normal;font-weight:bold;font-size:16.79999924px;font-family:Arial;-inkscape-font-specification:Arial-BoldMT;writing-mode:lr-tb;fill:#323232;fill-opacity:1;fill-rule:nonzero;stroke:none"
   id="text4097"><tspan
     x="0 13.9944 24.343201 33.683998 43.024799 47.695202"
     y="0"
     sodipodi:role="line"
     id="tspan4095">Muscle</tspan></text>

</g></g><g
           id="g4099"><g
             id="g4101"
             clip-path="url(#clipPath4105)"><text
   transform="matrix(1,0,0,-1,418.97,144.65)"
   style="font-variant:normal;font-weight:bold;font-size:16.79999924px;font-family:Arial;-inkscape-font-specification:Arial-BoldMT;writing-mode:lr-tb;fill:#323232;fill-opacity:1;fill-rule:nonzero;stroke:none"
   id="text4109"><tspan
     x="0 9.3408003 19.656 29.954399 35.548801 42.084 51.424801 60.765598 66.4104 71.080803 81.396004"
     y="0"
     sodipodi:role="line"
     id="tspan4107">contraction</tspan></text>

</g></g><g
           id="g4111"><g
             id="g4113"
             clip-path="url(#clipPath4117)"><text
   transform="matrix(1,0,0,-1,515.09,144.65)"
   style="font-variant:normal;font-weight:bold;font-size:16.79999924px;font-family:Arial;-inkscape-font-specification:Arial-BoldMT;writing-mode:lr-tb;fill:#323232;fill-opacity:1;fill-rule:nonzero;stroke:none"
   id="text4121"><tspan
     x="0 5.5943999 14.9856 27.1152"
     y="0"
     sodipodi:role="line"
     id="tspan4119">(3D)</tspan></text>

</g></g><g
           id="g4135"><g
             id="g4137"
             clip-path="url(#clipPath4141)"><text
   transform="matrix(1,0,0,-1,466.97,124.49)"
   style="font-variant:normal;font-weight:normal;font-size:16.79999924px;font-family:ArialMT;-inkscape-font-specification:ArialMT;writing-mode:lr-tb;fill:#323232;fill-opacity:1;fill-rule:nonzero;stroke:none"
   id="text4145"><tspan
     x="0 13.9944 23.385599 31.785601 41.1264 50.467201 59.841599 63.571201 71.971199"
     y="0"
     sodipodi:role="line"
     id="tspan4143">mechanics</tspan></text>

</g></g></g></g><path
       d="m 332.16,357.38 c 0,4.83 3.91,8.74 8.74,8.74 h 222.16 c 4.83,0 8.74,-3.91 8.74,-8.74 v -34.96 c 0,-4.83 -3.91,-8.74 -8.74,-8.74 H 340.9 c -4.83,0 -8.74,3.91 -8.74,8.74 z"
       style="fill:#bfbfbf;fill-opacity:1;fill-rule:evenodd;stroke:none"
       id="path4147"
       inkscape:connector-curvature="0" /><path
       d="m 332.16,357.38 c 0,4.83 3.91,8.74 8.74,8.74 h 222.16 c 4.83,0 8.74,-3.91 8.74,-8.74 v -34.96 c 0,-4.83 -3.91,-8.74 -8.74,-8.74 H 340.9 c -4.83,0 -8.74,3.91 -8.74,8.74 z"
       style="fill:none;stroke:#323232;stroke-width:0.95999998;stroke-linecap:butt;stroke-linejoin:miter;stroke-miterlimit:10;stroke-dasharray:none;stroke-opacity:1"
       id="path4149"
       inkscape:connector-curvature="0" /><g
       id="g5343"><g
         id="g4151"><g
           clip-path="url(#clipPath4157)"
           id="g4153"><text
   id="text4161"
   style="font-variant:normal;font-weight:bold;font-size:16.79999924px;font-family:Arial;-inkscape-font-specification:Arial-BoldMT;writing-mode:lr-tb;fill:#323232;fill-opacity:1;fill-rule:nonzero;stroke:none"
   transform="matrix(1,0,0,-1,360.07,343.75)"><tspan
     id="tspan4159"
     sodipodi:role="line"
     y="0"
     x="0 12.1296 21.4704 31.785601 38.270401 47.611198">Neural</tspan></text>

</g></g><g
         id="g4163"><g
           clip-path="url(#clipPath4169)"
           id="g4165"><text
   id="text4173"
   style="font-variant:normal;font-weight:bold;font-size:16.79999924px;font-family:Arial;-inkscape-font-specification:Arial-BoldMT;writing-mode:lr-tb;fill:#323232;fill-opacity:1;fill-rule:nonzero;stroke:none"
   transform="matrix(1,0,0,-1,416.95,343.75)"><tspan
     id="tspan4171"
     sodipodi:role="line"
     y="0"
     x="0 9.3408003 14.9856 19.656 34.591202 44.855999 49.526402 58.867199 64.528801 69.199203 79.514397">stimulation</tspan></text>

</g></g><g
         id="g4175"><g
           clip-path="url(#clipPath4181)"
           id="g4177"><text
   id="text4185"
   style="font-variant:normal;font-weight:bold;font-size:16.79999924px;font-family:Arial;-inkscape-font-specification:Arial-BoldMT;writing-mode:lr-tb;fill:#323232;fill-opacity:1;fill-rule:nonzero;stroke:none"
   transform="matrix(1,0,0,-1,511.15,343.75)"><tspan
     id="tspan4183"
     sodipodi:role="line"
     y="0"
     x="0 5.5943999 14.9856">(0D</tspan></text>

</g></g><g
         id="g4187"><g
           clip-path="url(#clipPath4193)"
           id="g4189"><text
   id="text4197"
   style="font-variant:normal;font-weight:bold;font-size:16.79999924px;font-family:Arial;-inkscape-font-specification:Arial-BoldMT;writing-mode:lr-tb;fill:#323232;fill-opacity:1;fill-rule:nonzero;stroke:none"
   transform="matrix(1,0,0,-1,538.3,343.75)"><tspan
     id="tspan4195"
     y="0"
     x="0">)</tspan></text>

</g></g><g
         id="g4199"><g
           clip-path="url(#clipPath4205)"
           id="g4201"><text
   id="text4209"
   style="font-variant:normal;font-weight:normal;font-size:16.79999924px;font-family:ArialMT;-inkscape-font-specification:ArialMT;writing-mode:lr-tb;fill:#323232;fill-opacity:1;fill-rule:nonzero;stroke:none"
   transform="matrix(1,0,0,-1,362.71,323.59)"><tspan
     id="tspan4207"
     sodipodi:role="line"
     y="0"
     x="0 13.9944 23.385599 28.056 37.396801 43.041599">Motor </tspan></text>

</g></g><g
         id="g4211"><g
           clip-path="url(#clipPath4217)"
           id="g4213"><text
   id="text4221"
   style="font-variant:normal;font-weight:normal;font-size:16.79999924px;font-family:ArialMT;-inkscape-font-specification:ArialMT;writing-mode:lr-tb;fill:#323232;fill-opacity:1;fill-rule:nonzero;stroke:none"
   transform="matrix(1,0,0,-1,410.35,323.59)"><tspan
     id="tspan4219"
     sodipodi:role="line"
     y="0"
     x="0 9.3599997 18.719999">and</tspan></text>

</g></g><g
         id="g4223"><g
           clip-path="url(#clipPath4229)"
           id="g4225"><text
   id="text4233"
   style="font-variant:normal;font-weight:normal;font-size:16.79999924px;font-family:ArialMT;-inkscape-font-specification:ArialMT;writing-mode:lr-tb;fill:#323232;fill-opacity:1;fill-rule:nonzero;stroke:none"
   transform="matrix(1,0,0,-1,443.11,323.59)"><tspan
     id="tspan4231"
     sodipodi:role="line"
     y="0"
     x="0 3.7296 13.0704 17.740801 27.0816">inter</tspan></text>

</g></g><g
         id="g4235"><g
           clip-path="url(#clipPath4241)"
           id="g4237"><text
   id="text4245"
   style="font-variant:normal;font-weight:normal;font-size:16.79999924px;font-family:ArialMT;-inkscape-font-specification:ArialMT;writing-mode:lr-tb;fill:#323232;fill-opacity:1;fill-rule:nonzero;stroke:none"
   transform="matrix(1,0,0,-1,480.43,323.59)"><tspan
     id="tspan4243"
     sodipodi:role="line"
     y="0"
     x="0 9.3408003 18.681601 28.056 33.650398 43.041599 52.382401">neurons</tspan></text>

</g></g></g><path
       d="m 632.76,158.24 c 0,4.79 3.89,8.68 8.68,8.68 h 221.92 c 4.79,0 8.68,-3.89 8.68,-8.68 v -34.72 c 0,-4.79 -3.89,-8.68 -8.68,-8.68 H 641.44 c -4.79,0 -8.68,3.89 -8.68,8.68 z"
       style="fill:#99ff99;fill-opacity:1;fill-rule:evenodd;stroke:none;opacity:0.1"
       id="path4247"
       inkscape:connector-curvature="0" /><path
       d="m 632.76,158.24 c 0,4.79 3.89,8.68 8.68,8.68 h 221.92 c 4.79,0 8.68,-3.89 8.68,-8.68 v -34.72 c 0,-4.79 -3.89,-8.68 -8.68,-8.68 H 641.44 c -4.79,0 -8.68,3.89 -8.68,8.68 z"
       style="fill:none;stroke:#323232;stroke-width:0.95999998;stroke-linecap:butt;stroke-linejoin:miter;stroke-miterlimit:10;stroke-dasharray:none;stroke-opacity:1"
       id="path4249"
       inkscape:connector-curvature="0" /><path
       d="m 632.4,357.38 c 0,4.83 3.91,8.74 8.74,8.74 H 863.3 c 4.83,0 8.74,-3.91 8.74,-8.74 v -34.96 c 0,-4.83 -3.91,-8.74 -8.74,-8.74 H 641.14 c -4.83,0 -8.74,3.91 -8.74,8.74 z"
       style="fill:#bfbfbf;fill-opacity:1;fill-rule:evenodd;stroke:none;opacity:0.1"
       id="path4323"
       inkscape:connector-curvature="0" /><path
       d="m 632.4,357.38 c 0,4.83 3.91,8.74 8.74,8.74 H 863.3 c 4.83,0 8.74,-3.91 8.74,-8.74 v -34.96 c 0,-4.83 -3.91,-8.74 -8.74,-8.74 H 641.14 c -4.83,0 -8.74,3.91 -8.74,8.74 z"
       style="fill:none;stroke:#323232;stroke-width:0.95999998;stroke-linecap:butt;stroke-linejoin:miter;stroke-miterlimit:10;stroke-dasharray:none;stroke-opacity:1"
       id="path4325"
       inkscape:connector-curvature="0" /><path
       d="m 332.16,269.58 c 0,6.66 5.4,12.06 12.06,12.06 h 215.52 c 6.66,0 12.06,-5.4 12.06,-12.06 v -48.24 c 0,-6.66 -5.4,-12.06 -12.06,-12.06 H 344.22 c -6.66,0 -12.06,5.4 -12.06,12.06 z"
       style="fill:#ff9999;fill-opacity:1;fill-rule:evenodd;stroke:none"
       id="path4435"
       inkscape:connector-curvature="0" /><path
       d="m 332.16,269.58 c 0,6.66 5.4,12.06 12.06,12.06 h 215.52 c 6.66,0 12.06,-5.4 12.06,-12.06 v -48.24 c 0,-6.66 -5.4,-12.06 -12.06,-12.06 H 344.22 c -6.66,0 -12.06,5.4 -12.06,12.06 z"
       style="fill:none;stroke:#323232;stroke-width:0.95999998;stroke-linecap:butt;stroke-linejoin:miter;stroke-miterlimit:10;stroke-dasharray:none;stroke-opacity:1"
       id="path4437"
       inkscape:connector-curvature="0" /><g
       id="g5309"><g
         id="g4439"><g
           clip-path="url(#clipPath4445)"
           id="g4441"><text
   id="text4449"
   style="font-variant:normal;font-weight:bold;font-size:16.79999924px;font-family:Arial;-inkscape-font-specification:Arial-BoldMT;writing-mode:lr-tb;fill:#323232;fill-opacity:1;fill-rule:nonzero;stroke:none"
   transform="matrix(1,0,0,-1,343.7,259.34)"><tspan
     id="tspan4447"
     sodipodi:role="line"
     y="0"
     x="0 13.9944 24.343201 33.683998 43.024799 47.695202">Muscle</tspan></text>

</g></g><g
         id="g4451"><g
           clip-path="url(#clipPath4457)"
           id="g4453"><text
   id="text4461"
   style="font-variant:normal;font-weight:bold;font-size:16.79999924px;font-family:Arial;-inkscape-font-specification:Arial-BoldMT;writing-mode:lr-tb;fill:#323232;fill-opacity:1;fill-rule:nonzero;stroke:none"
   transform="matrix(1,0,0,-1,405.41,259.34)"><tspan
     id="tspan4459"
     sodipodi:role="line"
     y="0"
     x="0 5.5943999 10.2984 20.5968 29.937599 36.472801">fibers</tspan></text>

</g></g><g
         id="g4463"><g
           clip-path="url(#clipPath4469)"
           id="g4465"><text
   id="text4473"
   style="font-variant:normal;font-weight:bold;font-size:16.79999924px;font-family:Arial;-inkscape-font-specification:Arial-BoldMT;writing-mode:lr-tb;fill:#323232;fill-opacity:1;fill-rule:nonzero;stroke:none"
   transform="matrix(1,0,0,-1,366.5,239.18)"><tspan
     id="tspan4471"
     y="0"
     x="0">(</tspan></text>

</g></g><g
         id="g4475"><g
           clip-path="url(#clipPath4481)"
           id="g4477"><text
   id="text4485"
   style="font-style:italic;font-variant:normal;font-weight:bold;font-size:16.79999924px;font-family:Arial;-inkscape-font-specification:Arial-BoldItalicMT;writing-mode:lr-tb;fill:#323232;fill-opacity:1;fill-rule:nonzero;stroke:none"
   transform="matrix(1,0,0,-1,372.14,239.18)"><tspan
     id="tspan4483"
     y="0"
     x="0">n</tspan></text>

</g></g><g
         id="g4487"><g
           clip-path="url(#clipPath4493)"
           id="g4489"><text
   id="text4497"
   style="font-variant:normal;font-weight:bold;font-size:16.79999924px;font-family:Arial;-inkscape-font-specification:Arial-BoldMT;writing-mode:lr-tb;fill:#323232;fill-opacity:1;fill-rule:nonzero;stroke:none"
   transform="matrix(1,0,0,-1,387.05,239.18)"><tspan
     id="tspan4495"
     y="0"
     x="0">×</tspan></text>

</g></g><g
         id="g4499"><g
           clip-path="url(#clipPath4505)"
           id="g4501"><text
   id="text4509"
   style="font-variant:normal;font-weight:bold;font-size:16.79999924px;font-family:Arial;-inkscape-font-specification:Arial-BoldMT;writing-mode:lr-tb;fill:#323232;fill-opacity:1;fill-rule:nonzero;stroke:none"
   transform="matrix(1,0,0,-1,401.45,239.18)"><tspan
     id="tspan4507"
     sodipodi:role="line"
     y="0"
     x="0 9.3599997">1D</tspan></text>

</g></g><g
         id="g4511"><g
           clip-path="url(#clipPath4517)"
           id="g4513"><text
   id="text4521"
   style="font-variant:normal;font-weight:bold;font-size:16.79999924px;font-family:Arial;-inkscape-font-specification:Arial-BoldMT;writing-mode:lr-tb;fill:#323232;fill-opacity:1;fill-rule:nonzero;stroke:none"
   transform="matrix(1,0,0,-1,422.93,239.18)"><tspan
     id="tspan4519"
     y="0"
     x="0">)</tspan></text>

</g></g><g
         id="g4523"><g
           clip-path="url(#clipPath4529)"
           id="g4525"><text
   id="text4533"
   style="font-variant:normal;font-weight:bold;font-size:16.79999924px;font-family:Arial;-inkscape-font-specification:Arial-BoldMT;writing-mode:lr-tb;fill:#323232;fill-opacity:1;fill-rule:nonzero;stroke:none"
   transform="matrix(1,0,0,-1,457.01,259.34)"><tspan
     id="tspan4531"
     sodipodi:role="line"
     y="0"
     x="0 13.9944 24.343201 29.013599 34.641602 39.312 49.627201 59.925598 74.810402 84.151199 88.821602 99.153603">Multidomain </tspan></text>

</g></g><g
         id="g4535"><g
           clip-path="url(#clipPath4541)"
           id="g4537"><text
   id="text4545"
   style="font-variant:normal;font-weight:bold;font-size:16.79999924px;font-family:Arial;-inkscape-font-specification:Arial-BoldMT;writing-mode:lr-tb;fill:#323232;fill-opacity:1;fill-rule:nonzero;stroke:none"
   transform="matrix(1,0,0,-1,490.25,239.18)"><tspan
     id="tspan4543"
     sodipodi:role="line"
     y="0"
     x="0 5.5943999 14.9856 27.1152">(3D)</tspan></text>

</g></g><g
         id="g4547"><g
           clip-path="url(#clipPath4553)"
           id="g4549"><text
   id="text4557"
   style="font-variant:normal;font-weight:normal;font-size:16.79999924px;font-family:ArialMT;-inkscape-font-specification:ArialMT;writing-mode:lr-tb;fill:#323232;fill-opacity:1;fill-rule:nonzero;stroke:none"
   transform="matrix(1,0,0,-1,347.78,218.78)"><tspan
     id="tspan4555"
     sodipodi:role="line"
     y="0"
     x="0 11.2056 19.6056 24.275999 28.0056 37.346401 46.687199 51.357601 60.698399 70.0392 74.709602 84.1008 93.441597 98.112 101.8416 111.1824 114.912">Action potential </tspan></text>

</g></g><g
         id="g4559"><g
           clip-path="url(#clipPath4565)"
           id="g4561"><text
   id="text4569"
   style="font-variant:normal;font-weight:normal;font-size:16.79999924px;font-family:ArialMT;-inkscape-font-specification:ArialMT;writing-mode:lr-tb;fill:#323232;fill-opacity:1;fill-rule:nonzero;stroke:none"
   transform="matrix(1,0,0,-1,467.45,218.78)"><tspan
     id="tspan4567"
     sodipodi:role="line"
     y="0"
     x="0 9.3408003 14.9856 24.326401 33.667198 43.041599 52.382401 61.723202 66.3936 70.123199 79.497597">propagation</tspan></text>

</g></g></g><path
       d="M 452.04,281.64 V 238.42"
       style="fill:none;stroke:#797271;stroke-width:0.95999998;stroke-linecap:butt;stroke-linejoin:miter;stroke-miterlimit:10;stroke-dasharray:none;stroke-opacity:1"
       id="path4571"
       inkscape:connector-curvature="0" /><path
       d="m 574.96,141.84 h 55.85 v -2.04 h -55.85 z m 5.61,-5.47 -7.63,4.45 7.63,4.45 c 0.48,0.28 1.11,0.12 1.39,-0.37 0.28,-0.48 0.12,-1.11 -0.37,-1.39 v 0 l -6.12,-3.57 v 1.76 l 6.12,-3.57 c 0.49,-0.28 0.65,-0.91 0.37,-1.39 -0.28,-0.49 -0.91,-0.65 -1.39,-0.37 z m 44.63,8.9 7.63,-4.45 -7.63,-4.45 c -0.49,-0.28 -1.11,-0.12 -1.39,0.37 -0.29,0.48 -0.12,1.11 0.36,1.39 l 6.12,3.57 v -1.76 l -6.12,3.57 c -0.48,0.28 -0.65,0.91 -0.36,1.39 0.28,0.49 0.9,0.65 1.39,0.37 z"
       style="fill:#323232;fill-opacity:1;fill-rule:nonzero;stroke:none"
       id="path4573"
       inkscape:connector-curvature="0" /><path
       d="m 453.15,207.21 0.48,-38.34 -2.04,-0.03 -0.48,38.35 z m -5.41,-5.67 4.36,7.68 4.55,-7.57 c 0.29,-0.48 0.13,-1.11 -0.35,-1.4 -0.49,-0.29 -1.11,-0.13 -1.4,0.35 v 0 l -3.65,6.08 1.76,0.02 -3.49,-6.17 c -0.28,-0.49 -0.9,-0.66 -1.39,-0.38 -0.49,0.28 -0.66,0.9 -0.39,1.39 z m 9.25,-27.03 -4.36,-7.68 -4.54,7.57 c -0.29,0.49 -0.14,1.11 0.35,1.4 0.48,0.29 1.1,0.14 1.39,-0.35 v 0 l 3.65,-6.07 -1.76,-0.02 3.49,6.16 c 0.28,0.49 0.9,0.66 1.39,0.38 0.49,-0.27 0.66,-0.9 0.39,-1.39 z"
       style="fill:#323232;fill-opacity:1;fill-rule:nonzero;stroke:none"
       id="path4575"
       inkscape:connector-curvature="0" /><path
       d="m 453.12,313.62 v -30.04 h -2.04 v 30.04 z m 3.43,-24.44 -4.45,-7.63 -4.45,7.63 c -0.28,0.49 -0.12,1.12 0.37,1.4 0.48,0.28 1.11,0.12 1.39,-0.37 l 3.57,-6.12 h -1.76 l 3.57,6.12 c 0.28,0.49 0.91,0.65 1.39,0.37 0.49,-0.28 0.65,-0.91 0.37,-1.4 z"
       style="fill:#323232;fill-opacity:1;fill-rule:nonzero;stroke:none"
       id="path4577"
       inkscape:connector-curvature="0" /><path
       d="m 632.48,340.92 h -58.6 v -2.04 h 58.6 z m -52.99,3.43 -7.63,-4.45 7.63,-4.45 c 0.48,-0.28 1.11,-0.12 1.39,0.37 0.28,0.48 0.12,1.11 -0.37,1.39 l -6.12,3.57 v -1.76 l 6.12,3.57 c 0.49,0.28 0.65,0.91 0.37,1.39 -0.28,0.49 -0.91,0.65 -1.39,0.37 z"
       style="fill:#323232;fill-opacity:1;fill-rule:nonzero;stroke:none"
       id="path4579"
       inkscape:connector-curvature="0" /><path
       d="m 573.88,246.48 56.58,-0.13 v -2.04 l -56.58,0.13 z m 5.6,-5.49 -7.62,4.47 7.64,4.43 c 0.48,0.29 1.11,0.12 1.39,-0.37 0.28,-0.48 0.12,-1.11 -0.37,-1.39 v 0 l -6.13,-3.56 0.01,1.77 6.11,-3.59 c 0.48,-0.28 0.65,-0.91 0.36,-1.39 -0.28,-0.49 -0.91,-0.65 -1.39,-0.37 z m 45.38,8.8 7.62,-4.47 -7.64,-4.43 c -0.48,-0.28 -1.11,-0.12 -1.39,0.37 -0.28,0.49 -0.12,1.11 0.37,1.39 l 6.13,3.56 -0.01,-1.76 -6.11,3.58 c -0.48,0.29 -0.65,0.91 -0.36,1.4 0.28,0.48 0.91,0.65 1.39,0.36 z"
       style="fill:#323232;fill-opacity:1;fill-rule:nonzero;stroke:none"
       id="path4581"
       inkscape:connector-curvature="0" /><g
       id="g4583"><g
         id="g4585"
         clip-path="url(#clipPath4589)"><path
           d="M 452.58,114.78 V 89.857 h 458.28"
           style="fill:none;stroke:#323232;stroke-width:2.03999996;stroke-linecap:butt;stroke-linejoin:miter;stroke-miterlimit:10;stroke-dasharray:none;stroke-opacity:1"
           id="path4591"
           inkscape:connector-curvature="0" /></g></g><g
       id="g4593"><g
         id="g4595"
         clip-path="url(#clipPath4599)"><path
           d="M 911.92,89.914 V 340.92 H 877.2 v -2.04 h 33.7 l -1.02,1.02 V 89.914 Z m -33.7,253.046 -6.12,-3.06 6.12,-3.06 z"
           style="fill:#323232;fill-opacity:1;fill-rule:nonzero;stroke:none"
           id="path4601"
           inkscape:connector-curvature="0" /></g></g><path
       d="m 332.33,246.48 -52.46,-0.3 0.02,-2.04 52.45,0.3 z m -46.87,3.16 -7.6,-4.49 7.65,-4.41 c 0.49,-0.28 1.11,-0.11 1.39,0.38 0.29,0.48 0.12,1.11 -0.37,1.39 v 0 l -6.14,3.53 0.01,-1.76 6.1,3.61 c 0.48,0.28 0.64,0.91 0.36,1.39 -0.29,0.49 -0.92,0.65 -1.4,0.36 z"
       style="fill:#323232;fill-opacity:1;fill-rule:nonzero;stroke:none"
       id="path4603"
       inkscape:connector-curvature="0" /><path
       d="m 38.16,262.9 c 0,4.78 3.877,8.66 8.66,8.66 h 222.32 c 4.78,0 8.66,-3.88 8.66,-8.66 v -34.64 c 0,-4.78 -3.88,-8.66 -8.66,-8.66 H 46.82 c -4.783,0 -8.66,3.88 -8.66,8.66 z"
       style="fill:#b6d7ff;fill-opacity:1;fill-rule:evenodd;stroke:none"
       id="path4605"
       inkscape:connector-curvature="0" /><path
       d="m 38.16,262.9 c 0,4.78 3.877,8.66 8.66,8.66 h 222.32 c 4.78,0 8.66,-3.88 8.66,-8.66 v -34.64 c 0,-4.78 -3.88,-8.66 -8.66,-8.66 H 46.82 c -4.783,0 -8.66,3.88 -8.66,8.66 z"
       style="fill:none;stroke:#323232;stroke-width:0.95999998;stroke-linecap:butt;stroke-linejoin:miter;stroke-miterlimit:10;stroke-dasharray:none;stroke-opacity:1"
       id="path4607"
       inkscape:connector-curvature="0" /><g
       id="g5483"><g
         id="g4609"><g
           clip-path="url(#clipPath4615)"
           id="g4611"><text
   id="text4619"
   style="font-variant:normal;font-weight:bold;font-size:16.79999924px;font-family:Arial;-inkscape-font-specification:Arial-BoldMT;writing-mode:lr-tb;fill:#323232;fill-opacity:1;fill-rule:nonzero;stroke:none"
   transform="matrix(1,0,0,-1,104.59,249.34)"><tspan
     id="tspan4617"
     sodipodi:role="line"
     y="0"
     x="0 10.2984 19.6392">Fat</tspan></text>

</g></g><g
         id="g4621"><g
           clip-path="url(#clipPath4627)"
           id="g4623"><text
   id="text4631"
   style="font-variant:normal;font-weight:bold;font-size:16.79999924px;font-family:Arial;-inkscape-font-specification:Arial-BoldMT;writing-mode:lr-tb;fill:#323232;fill-opacity:1;fill-rule:nonzero;stroke:none"
   transform="matrix(1,0,0,-1,134.47,249.34)"><tspan
     id="tspan4629"
     sodipodi:role="line"
     y="0"
     x="0 4.6704001 14.0112 23.1672 32.507999">layer</tspan></text>

</g></g><g
         id="g4633"><g
           clip-path="url(#clipPath4639)"
           id="g4635"><text
   id="text4643"
   style="font-variant:normal;font-weight:bold;font-size:16.79999924px;font-family:Arial;-inkscape-font-specification:Arial-BoldMT;writing-mode:lr-tb;fill:#323232;fill-opacity:1;fill-rule:nonzero;stroke:none"
   transform="matrix(1,0,0,-1,178.42,249.34)"><tspan
     id="tspan4641"
     sodipodi:role="line"
     y="0"
     x="0 5.5943999 14.9856">(3D</tspan></text>

</g></g><g
         id="g4645"><g
           clip-path="url(#clipPath4651)"
           id="g4647"><text
   id="text4655"
   style="font-variant:normal;font-weight:bold;font-size:16.79999924px;font-family:Arial;-inkscape-font-specification:Arial-BoldMT;writing-mode:lr-tb;fill:#323232;fill-opacity:1;fill-rule:nonzero;stroke:none"
   transform="matrix(1,0,0,-1,205.54,249.34)"><tspan
     id="tspan4653"
     y="0"
     x="0">)</tspan></text>

</g></g><g
         id="g4657"><g
           clip-path="url(#clipPath4663)"
           id="g4659"><text
   id="text4667"
   style="font-variant:normal;font-weight:normal;font-size:16.79999924px;font-family:ArialMT;-inkscape-font-specification:ArialMT;writing-mode:lr-tb;fill:#323232;fill-opacity:1;fill-rule:nonzero;stroke:none"
   transform="matrix(1,0,0,-1,110.23,229.18)"><tspan
     id="tspan4665"
     sodipodi:role="line"
     y="0"
     x="0 11.2056 25.200001 38.270401">EMG </tspan></text>

</g></g><g
         id="g4669"><g
           clip-path="url(#clipPath4675)"
           id="g4671"><text
   id="text4679"
   style="font-variant:normal;font-weight:normal;font-size:16.79999924px;font-family:ArialMT;-inkscape-font-specification:ArialMT;writing-mode:lr-tb;fill:#323232;fill-opacity:1;fill-rule:nonzero;stroke:none"
   transform="matrix(1,0,0,-1,153.19,229.18)"><tspan
     id="tspan4677"
     sodipodi:role="line"
     y="0"
     x="0 8.3999996 12.1296 21.4704 30.811199 40.152 43.881599">signals</tspan></text>

</g></g></g></g></svg>